<svg width="138" height="46" viewBox="0 0 138 46" fill="none" xmlns="http://www.w3.org/2000/svg">
<rect x="1.72498" y="41.4" width="40.25" height="4.6" fill="#00B231"/>
<path d="M6.25172 0.780376C4.8848 2.4387 1.74138 6.32363 0.625799 8.30688C0.226691 8.96527 0 9.73773 0 10.5639C0 12.9719 1.95207 14.9239 4.36007 14.9239C6.76808 14.9239 8.72015 12.9719 8.72015 10.5639C8.72015 12.9719 10.6722 14.9239 13.0802 14.9239C15.4882 14.9239 17.4403 12.9719 17.4403 10.5639C17.4403 12.9719 19.4307 14.9455 21.8387 14.9455C24.2467 14.9455 26.2597 12.9935 26.2597 10.5855C26.2597 12.9935 28.2118 14.9455 30.6198 14.9455C33.0278 14.9455 34.9799 12.9935 34.9799 10.5855C34.9799 12.9935 36.9319 14.9455 39.3399 14.9455C41.7479 14.9455 43.7 12.9935 43.7 10.5855C43.7 9.75932 43.4733 8.98686 43.0742 8.32847C41.9587 6.34531 38.8155 2.44771 37.4485 0.783408C37.0383 0.284012 36.4267 0 35.7804 0H7.9171C7.27225 0 6.66187 0.28278 6.25172 0.780376Z" fill="#00B231"/>
<path d="M13.0793 14.9239C10.6713 14.9239 8.71922 12.9718 8.71922 10.5638L12.65 0H18.4L17.4394 10.5638C17.4394 12.9718 15.4873 14.9239 13.0793 14.9239Z" fill="#73D58E"/>
<path d="M30.6167 14.9239C33.0247 14.9239 34.9768 12.9719 34.9768 10.5639L31.05 0H25.3L26.2566 10.5639C26.2566 12.9719 28.2087 14.9239 30.6167 14.9239Z" fill="#73D58E"/>
<g opacity="0.15">
<path d="M8.72015 10.5648C8.72015 10.5663 8.72015 10.5677 8.72015 10.5691C8.72015 10.5677 8.72015 10.5663 8.72015 10.5648Z" fill="black"/>
<path d="M8.72015 10.5648C8.72015 10.5663 8.72015 10.5677 8.72015 10.5691L17.4403 10.5734C17.4403 10.5706 17.4403 10.5677 17.4403 10.5648C17.4403 10.5677 17.4403 10.5706 17.4403 10.5734L43.7 10.5864C43.7 12.9944 41.7479 14.9465 39.3399 14.9465C36.9319 14.9465 34.9799 12.9944 34.9799 10.5864C34.9799 12.9944 33.0278 14.9465 30.6198 14.9465C28.2118 14.9465 26.2597 12.9944 26.2597 10.5864C26.2597 12.9944 24.2467 14.9465 21.8387 14.9465C19.4336 14.9465 17.445 12.9775 17.4403 10.5734L17.4403 10.5734C17.4356 12.9775 15.4854 14.9249 13.0802 14.9249C10.6737 14.9249 8.72247 12.9752 8.72015 10.5691C8.71782 12.9752 6.76664 14.9249 4.36007 14.9249C1.95207 14.9249 0 12.9728 0 10.5648L8.72015 10.5691C8.72015 10.5677 8.72015 10.5663 8.72015 10.5648Z" fill="black"/>
</g>
<path fill-rule="evenodd" clip-rule="evenodd" d="M75.6486 22.7197H80.1406L80.1427 38.4896C80.1427 40.2546 79.7124 41.346 77.957 41.346C77.4608 41.346 77.0627 41.2815 76.699 41.1212L76.6325 45.6143C77.1952 45.839 78.0565 46 78.9843 46C83.2893 46 85.4428 43.1429 85.4428 38.618L85.4442 22.7197H90.9426V18.4426H85.4442V16.6789C85.4442 15.8035 85.6965 15.1597 86.1997 14.7468C86.7028 14.3339 87.4583 14.1275 88.4646 14.1275C88.9033 14.1275 89.3035 14.1526 89.6651 14.2029C90.026 14.2531 90.4514 14.3278 90.9426 14.4276V10.1125C90.5299 9.98824 90.0386 9.90063 89.471 9.85038C88.9033 9.8008 88.3476 9.77499 87.8059 9.77499C85.3279 9.77499 83.4315 10.357 82.1148 11.5197C80.7987 12.683 80.1406 14.3658 80.1406 16.5662V18.4426H75.6486V22.7197ZM73.197 37.9779H67.8927V18.4301H73.197V37.9779ZM73.3486 13.4262C73.3486 14.9743 72.0933 16.2294 70.5451 16.2294C68.9969 16.2294 67.7416 14.9743 67.7416 13.4262C67.7416 11.8782 68.9969 10.6231 70.5451 10.6231C72.0933 10.6231 73.3486 11.8782 73.3486 13.4262ZM98.6985 37.9779H93.3942V18.4301H98.6985V37.9779ZM98.8496 13.4262C98.8496 14.9743 97.5943 16.2294 96.0461 16.2294C94.4979 16.2294 93.2426 14.9743 93.2426 13.4262C93.2426 11.8782 94.4979 10.6231 96.0461 10.6231C97.5943 10.6231 98.8496 11.8782 98.8496 13.4262ZM50.1238 28.2043C50.1238 30.967 52.388 33.2067 55.1809 33.2067C57.9738 33.2067 60.238 30.967 60.238 28.2043C60.238 25.441 57.9738 23.2013 55.1809 23.2013C52.388 23.2013 50.1238 25.441 50.1238 28.2043ZM50.1171 19.3812C51.6124 18.5391 53.3377 18.0521 55.1811 18.0521C60.8479 18.0521 65.4416 22.5961 65.4416 28.2016C65.4416 33.8064 60.8479 38.3503 55.1811 38.3503C53.3377 38.3503 51.6124 37.8634 50.1171 37.0213V46H44.9207V18.4277H50.1171V19.3812ZM129.562 24.8741C130.207 24.0238 130.981 23.3732 131.885 22.923C132.789 22.4727 134.233 22.2473 135.369 22.2473C136.35 22.2731 137.511 22.4231 138.001 22.6982V18.4279C137.511 18.1528 136.35 18.0028 135.369 17.9776C134.233 17.9776 132.789 18.2024 131.885 18.6527C130.981 19.1029 130.207 19.7542 129.562 20.6038V18.4279H124.258V37.9757H129.562V24.8741ZM111.41 23.1962C109.392 23.1962 107.65 24.3658 106.839 26.057H115.982C115.171 24.3658 113.429 23.1962 111.41 23.1962ZM111.41 33.204C112.785 33.204 114.033 32.6607 114.944 31.7799L118.624 35.422C116.771 37.2325 114.224 38.3503 111.414 38.3503H111.41C105.743 38.3503 101.15 33.8063 101.15 28.2016C101.15 22.5961 105.743 18.0521 111.41 18.0521C117.077 18.0521 121.671 22.5961 121.671 28.2016V30.3428H106.838C107.65 32.0345 109.392 33.204 111.41 33.204Z" fill="white"/>
<path fill-rule="evenodd" clip-rule="evenodd" d="M26.9439 28.2014C26.9439 30.9641 29.2081 33.2038 32.001 33.2038C34.7939 33.2038 37.0581 30.9641 37.0581 28.2014C37.0581 25.4381 34.7939 23.1984 32.001 23.1984C29.2081 23.1984 26.9439 25.4381 26.9439 28.2014ZM21.7407 28.2016C21.7407 22.5961 26.3344 18.0521 32.0012 18.0521C37.668 18.0521 42.2616 22.5961 42.2616 28.2016C42.2616 33.8063 37.668 38.3503 32.0012 38.3503C26.3344 38.3503 21.7407 33.8063 21.7407 28.2016ZM7.97134 18.4H1.72498L8.95157 28.175L1.72498 37.95H7.97134L12.075 32.3994L16.1786 37.95H22.425L15.1984 28.175L22.425 18.4H16.1786L12.075 23.9506L7.97134 18.4Z" fill="white"/>
</svg>
