<?xml version="1.0" encoding="UTF-8"?>
<svg width="14px" height="14px" viewBox="0 0 14 14" version="1.1" xmlns="http://www.w3.org/2000/svg" xmlns:xlink="http://www.w3.org/1999/xlink">
    <title>Combined-Shape</title>
    <g id="X---Cuestionario-1---Cambios" stroke="none" stroke-width="1" fill="none" fill-rule="evenodd">
        <g id="X-Fase-1_Flujo-1y2_Paso-0" transform="translate(-1184, -85)" fill="#A6A6A7" fill-rule="nonzero">
            <g id="Group" transform="translate(959, 52.4792)">
                <g id="close" transform="translate(225, 32.5208)">
                    <path d="M13.6554051,0.344594883 C14.1148649,0.80405473 14.1148649,1.54898632 13.6554051,2.00844616 L8.66311277,6.99951276 L13.6554051,11.9915538 C14.0861487,12.4222974 14.1130702,13.1039439 13.7361695,13.5660504 L13.6554051,13.6554051 C13.1959452,14.114865 12.4510137,14.114865 11.9915538,13.6554051 L6.99951276,8.66311278 L2.00844616,13.6554051 C1.54898631,14.114865 0.804054729,14.114865 0.344594882,13.6554051 C-0.114864961,13.1959452 -0.114864961,12.4510137 0.344594882,11.9915538 L5.33591274,6.99951276 L0.344594882,2.00844616 C-0.0861487206,1.57770256 -0.113070196,0.896056054 0.263830457,0.433949585 L0.344594882,0.344594883 C0.804054729,-0.114864961 1.54898631,-0.114864961 2.00844616,0.344594883 L6.99951276,5.33591274 L11.9915538,0.344594883 C12.4510137,-0.114864961 13.1959452,-0.114864961 13.6554051,0.344594883 Z" id="Combined-Shape"></path>
                </g>
            </g>
        </g>
    </g>
</svg>